<?xml version="1.0" encoding="UTF-8" standalone="no"?><svg xmlns="http://www.w3.org/2000/svg" xmlns:xlink="http://www.w3.org/1999/xlink" contentScriptType="application/ecmascript" contentStyleType="text/css" height="460px" preserveAspectRatio="none" style="width:703px;height:460px;" version="1.1" viewBox="0 0 703 460" width="703px" zoomAndPan="magnify"><defs><filter height="300%" id="fxax0b8dj3uag" width="300%" x="-1" y="-1"><feGaussianBlur result="blurOut" stdDeviation="2.0"/><feColorMatrix in="blurOut" result="blurOut2" type="matrix" values="0 0 0 0 0 0 0 0 0 0 0 0 0 0 0 0 0 0 .4 0"/><feOffset dx="4.0" dy="4.0" in="blurOut2" result="blurOut3"/><feBlend in="SourceGraphic" in2="blurOut3" mode="normal"/></filter></defs><g><text fill="#000000" font-family="sans-serif" font-size="18" lengthAdjust="spacing" textLength="242" x="224" y="16.708">Strategy Pattern Example</text><!--MD5=[d158a6dce09f5d39994450e35f24e50d]
class packet--><rect codeLine="23" fill="#FEFECE" filter="url(#fxax0b8dj3uag)" height="60.8047" id="packet" style="stroke:#A80036;stroke-width:1.5;" width="89" x="121" y="144.9531"/><ellipse cx="143.2" cy="160.9531" fill="#ADD1B2" rx="11" ry="11" style="stroke:#A80036;stroke-width:1.0;"/><path d="M145.5438,156.625 C144.6063,156.1875 144.0125,156.0469 143.1375,156.0469 C140.5125,156.0469 138.5125,158.125 138.5125,160.8438 L138.5125,161.9688 C138.5125,164.5469 140.6219,166.4375 143.5125,166.4375 C144.7313,166.4375 145.8875,166.1406 146.6375,165.5938 C147.2156,165.1875 147.5438,164.7344 147.5438,164.3438 C147.5438,163.8906 147.1531,163.5 146.6844,163.5 C146.4656,163.5 146.2625,163.5781 146.075,163.7656 C145.6219,164.25 145.6219,164.25 145.4344,164.3438 C145.0125,164.6094 144.325,164.7344 143.5594,164.7344 C141.5125,164.7344 140.2156,163.6406 140.2156,161.9375 L140.2156,160.8438 C140.2156,159.0625 141.4656,157.75 143.2,157.75 C143.7781,157.75 144.3875,157.9063 144.8563,158.1563 C145.3406,158.4375 145.5125,158.6563 145.6063,159.0625 C145.6688,159.4688 145.7,159.5938 145.8406,159.7188 C145.9813,159.8594 146.2156,159.9688 146.4344,159.9688 C146.7,159.9688 146.9656,159.8281 147.1375,159.6094 C147.2469,159.4531 147.2781,159.2656 147.2781,158.8438 L147.2781,157.4219 C147.2781,156.9844 147.2625,156.8594 147.1688,156.7031 C147.0125,156.4375 146.7313,156.2969 146.4344,156.2969 C146.1375,156.2969 145.9344,156.3906 145.7156,156.7031 L145.5438,156.625 Z " fill="#000000"/><text fill="#000000" font-family="sans-serif" font-size="12" lengthAdjust="spacing" textLength="41" x="158.8" y="165.1074">packet</text><line style="stroke:#A80036;stroke-width:1.5;" x1="122" x2="209" y1="176.9531" y2="176.9531"/><ellipse cx="132" cy="187.9531" fill="none" rx="3" ry="3" style="stroke:#038048;stroke-width:1.0;"/><text fill="#000000" font-family="sans-serif" font-size="11" lengthAdjust="spacing" textLength="63" x="141" y="191.1636">data: string</text><line style="stroke:#A80036;stroke-width:1.5;" x1="122" x2="209" y1="197.7578" y2="197.7578"/><!--MD5=[bb370c11d182b7ebaea7e6fa83404e81]
class Process--><rect codeLine="27" fill="#FEFECE" filter="url(#fxax0b8dj3uag)" height="60.8047" id="Process" style="stroke:#A80036;stroke-width:1.5;" width="133" x="281" y="274.9531"/><ellipse cx="321.2" cy="290.9531" fill="#A9DCDF" rx="11" ry="11" style="stroke:#A80036;stroke-width:1.0;"/><path d="M323.2781,292.7656 L323.6688,293.75 L323.2781,293.75 C322.825,293.75 322.7156,293.7656 322.5594,293.875 C322.3094,294.0313 322.1531,294.3125 322.1531,294.6094 C322.1531,294.875 322.2938,295.125 322.5125,295.2813 C322.6531,295.4063 322.8563,295.4531 323.2781,295.4531 L325.6375,295.4531 C325.9969,295.4531 326.2156,295.4219 326.3563,295.3281 C326.6063,295.1875 326.7625,294.8906 326.7625,294.6094 C326.7625,294.3281 326.6219,294.0781 326.4031,293.9219 C326.2313,293.7813 326.075,293.75 325.6063,293.75 L322.2156,285.5469 L318.5438,285.5469 C318.0906,285.5469 317.9656,285.5625 317.8094,285.6563 C317.5594,285.8281 317.4031,286.1094 317.4031,286.3906 C317.4031,286.6719 317.5438,286.9219 317.7625,287.0938 C317.9344,287.2031 318.1063,287.2344 318.5438,287.2344 L319.6219,287.2344 L316.9813,293.75 C316.5594,293.75 316.4031,293.7656 316.2469,293.875 C315.9969,294.0313 315.8406,294.3125 315.8406,294.6094 C315.8406,295.1719 316.2156,295.4531 316.9656,295.4531 L319.2313,295.4531 C319.5906,295.4531 319.8094,295.4219 319.9344,295.3281 C320.2,295.1875 320.3406,294.8906 320.3406,294.6094 C320.3406,294.3281 320.2156,294.0781 319.9969,293.9063 C319.825,293.7813 319.6844,293.75 319.2313,293.75 L318.8406,293.75 L319.2313,292.7656 L323.2781,292.7656 Z M322.575,291.0625 L319.9031,291.0625 L321.2469,287.7969 L322.575,291.0625 Z " fill="#000000"/><text fill="#000000" font-family="sans-serif" font-size="12" font-style="italic" lengthAdjust="spacing" textLength="45" x="340.8" y="295.1074">Process</text><line style="stroke:#A80036;stroke-width:1.5;" x1="282" x2="413" y1="306.9531" y2="306.9531"/><line style="stroke:#A80036;stroke-width:1.5;" x1="282" x2="413" y1="314.9531" y2="314.9531"/><text fill="#000000" font-family="sans-serif" font-size="11" font-style="italic" lengthAdjust="spacing" textLength="121" x="287" y="329.1636">processing(p: packet)</text><!--MD5=[083ed93fff45367e26172f713d23e8d6]
class PacketHandler--><rect codeLine="31" fill="#FEFECE" filter="url(#fxax0b8dj3uag)" height="99.2188" id="PacketHandler" style="stroke:#A80036;stroke-width:1.5;" width="175" x="260" y="125.9531"/><ellipse cx="300.65" cy="141.9531" fill="#ADD1B2" rx="11" ry="11" style="stroke:#A80036;stroke-width:1.0;"/><path d="M302.9938,137.625 C302.0563,137.1875 301.4625,137.0469 300.5875,137.0469 C297.9625,137.0469 295.9625,139.125 295.9625,141.8438 L295.9625,142.9688 C295.9625,145.5469 298.0719,147.4375 300.9625,147.4375 C302.1813,147.4375 303.3375,147.1406 304.0875,146.5938 C304.6656,146.1875 304.9938,145.7344 304.9938,145.3438 C304.9938,144.8906 304.6031,144.5 304.1344,144.5 C303.9156,144.5 303.7125,144.5781 303.525,144.7656 C303.0719,145.25 303.0719,145.25 302.8844,145.3438 C302.4625,145.6094 301.775,145.7344 301.0094,145.7344 C298.9625,145.7344 297.6656,144.6406 297.6656,142.9375 L297.6656,141.8438 C297.6656,140.0625 298.9156,138.75 300.65,138.75 C301.2281,138.75 301.8375,138.9063 302.3063,139.1563 C302.7906,139.4375 302.9625,139.6563 303.0563,140.0625 C303.1188,140.4688 303.15,140.5938 303.2906,140.7188 C303.4313,140.8594 303.6656,140.9688 303.8844,140.9688 C304.15,140.9688 304.4156,140.8281 304.5875,140.6094 C304.6969,140.4531 304.7281,140.2656 304.7281,139.8438 L304.7281,138.4219 C304.7281,137.9844 304.7125,137.8594 304.6188,137.7031 C304.4625,137.4375 304.1813,137.2969 303.8844,137.2969 C303.5875,137.2969 303.3844,137.3906 303.1656,137.7031 L302.9938,137.625 Z " fill="#000000"/><text fill="#000000" font-family="sans-serif" font-size="12" lengthAdjust="spacing" textLength="86" x="320.35" y="146.1074">PacketHandler</text><line style="stroke:#A80036;stroke-width:1.5;" x1="261" x2="434" y1="157.9531" y2="157.9531"/><ellipse cx="271" cy="168.9531" fill="none" rx="3" ry="3" style="stroke:#038048;stroke-width:1.0;"/><text fill="#000000" font-family="sans-serif" font-size="11" lengthAdjust="spacing" textLength="83" x="280" y="172.1636">packet: packet</text><rect fill="none" height="6" style="stroke:#C82930;stroke-width:1.0;" width="6" x="268" y="178.7578"/><text fill="#000000" font-family="sans-serif" font-size="11" lengthAdjust="spacing" textLength="94" x="280" y="184.9683">process: Process</text><line style="stroke:#A80036;stroke-width:1.5;" x1="261" x2="434" y1="191.5625" y2="191.5625"/><text fill="#000000" font-family="sans-serif" font-size="11" lengthAdjust="spacing" textLength="163" x="266" y="205.7729">setProcess(process: Process)</text><text fill="#000000" font-family="sans-serif" font-size="11" lengthAdjust="spacing" textLength="82" x="266" y="218.5776">doProcessing()</text><!--MD5=[89647c88d3e74cfa0d0ab4d7b7ceac66]
class processSSH--><rect codeLine="38" fill="#FEFECE" filter="url(#fxax0b8dj3uag)" height="60.8047" id="processSSH" style="stroke:#A80036;stroke-width:1.5;" width="133" x="7" y="385.9531"/><ellipse cx="33.7" cy="401.9531" fill="#ADD1B2" rx="11" ry="11" style="stroke:#A80036;stroke-width:1.0;"/><path d="M36.0438,397.625 C35.1063,397.1875 34.5125,397.0469 33.6375,397.0469 C31.0125,397.0469 29.0125,399.125 29.0125,401.8438 L29.0125,402.9688 C29.0125,405.5469 31.1219,407.4375 34.0125,407.4375 C35.2313,407.4375 36.3875,407.1406 37.1375,406.5938 C37.7156,406.1875 38.0438,405.7344 38.0438,405.3438 C38.0438,404.8906 37.6531,404.5 37.1844,404.5 C36.9656,404.5 36.7625,404.5781 36.575,404.7656 C36.1219,405.25 36.1219,405.25 35.9344,405.3438 C35.5125,405.6094 34.825,405.7344 34.0594,405.7344 C32.0125,405.7344 30.7156,404.6406 30.7156,402.9375 L30.7156,401.8438 C30.7156,400.0625 31.9656,398.75 33.7,398.75 C34.2781,398.75 34.8875,398.9063 35.3563,399.1563 C35.8406,399.4375 36.0125,399.6563 36.1063,400.0625 C36.1688,400.4688 36.2,400.5938 36.3406,400.7188 C36.4813,400.8594 36.7156,400.9688 36.9344,400.9688 C37.2,400.9688 37.4656,400.8281 37.6375,400.6094 C37.7469,400.4531 37.7781,400.2656 37.7781,399.8438 L37.7781,398.4219 C37.7781,397.9844 37.7625,397.8594 37.6688,397.7031 C37.5125,397.4375 37.2313,397.2969 36.9344,397.2969 C36.6375,397.2969 36.4344,397.3906 36.2156,397.7031 L36.0438,397.625 Z " fill="#000000"/><text fill="#000000" font-family="sans-serif" font-size="12" lengthAdjust="spacing" textLength="75" x="50.3" y="406.1074">processSSH</text><line style="stroke:#A80036;stroke-width:1.5;" x1="8" x2="139" y1="417.9531" y2="417.9531"/><line style="stroke:#A80036;stroke-width:1.5;" x1="8" x2="139" y1="425.9531" y2="425.9531"/><text fill="#000000" font-family="sans-serif" font-size="11" lengthAdjust="spacing" textLength="121" x="13" y="440.1636">processing(p: packet)</text><!--MD5=[27fc9c1de7c263fce4f7c1fc8d6fa8b3]
class processTLS--><rect codeLine="42" fill="#FEFECE" filter="url(#fxax0b8dj3uag)" height="60.8047" id="processTLS" style="stroke:#A80036;stroke-width:1.5;" width="133" x="190" y="385.9531"/><ellipse cx="218.5" cy="401.9531" fill="#ADD1B2" rx="11" ry="11" style="stroke:#A80036;stroke-width:1.0;"/><path d="M220.8438,397.625 C219.9063,397.1875 219.3125,397.0469 218.4375,397.0469 C215.8125,397.0469 213.8125,399.125 213.8125,401.8438 L213.8125,402.9688 C213.8125,405.5469 215.9219,407.4375 218.8125,407.4375 C220.0313,407.4375 221.1875,407.1406 221.9375,406.5938 C222.5156,406.1875 222.8438,405.7344 222.8438,405.3438 C222.8438,404.8906 222.4531,404.5 221.9844,404.5 C221.7656,404.5 221.5625,404.5781 221.375,404.7656 C220.9219,405.25 220.9219,405.25 220.7344,405.3438 C220.3125,405.6094 219.625,405.7344 218.8594,405.7344 C216.8125,405.7344 215.5156,404.6406 215.5156,402.9375 L215.5156,401.8438 C215.5156,400.0625 216.7656,398.75 218.5,398.75 C219.0781,398.75 219.6875,398.9063 220.1563,399.1563 C220.6406,399.4375 220.8125,399.6563 220.9063,400.0625 C220.9688,400.4688 221,400.5938 221.1406,400.7188 C221.2813,400.8594 221.5156,400.9688 221.7344,400.9688 C222,400.9688 222.2656,400.8281 222.4375,400.6094 C222.5469,400.4531 222.5781,400.2656 222.5781,399.8438 L222.5781,398.4219 C222.5781,397.9844 222.5625,397.8594 222.4688,397.7031 C222.3125,397.4375 222.0313,397.2969 221.7344,397.2969 C221.4375,397.2969 221.2344,397.3906 221.0156,397.7031 L220.8438,397.625 Z " fill="#000000"/><text fill="#000000" font-family="sans-serif" font-size="12" lengthAdjust="spacing" textLength="71" x="235.5" y="406.1074">processTLS</text><line style="stroke:#A80036;stroke-width:1.5;" x1="191" x2="322" y1="417.9531" y2="417.9531"/><line style="stroke:#A80036;stroke-width:1.5;" x1="191" x2="322" y1="425.9531" y2="425.9531"/><text fill="#000000" font-family="sans-serif" font-size="11" lengthAdjust="spacing" textLength="121" x="196" y="440.1636">processing(p: packet)</text><!--MD5=[609d3a8243d796b1b8d1792ef3af72bd]
class processIPSEC--><rect codeLine="46" fill="#FEFECE" filter="url(#fxax0b8dj3uag)" height="60.8047" id="processIPSEC" style="stroke:#A80036;stroke-width:1.5;" width="133" x="373" y="385.9531"/><ellipse cx="396.55" cy="401.9531" fill="#ADD1B2" rx="11" ry="11" style="stroke:#A80036;stroke-width:1.0;"/><path d="M398.8938,397.625 C397.9563,397.1875 397.3625,397.0469 396.4875,397.0469 C393.8625,397.0469 391.8625,399.125 391.8625,401.8438 L391.8625,402.9688 C391.8625,405.5469 393.9719,407.4375 396.8625,407.4375 C398.0813,407.4375 399.2375,407.1406 399.9875,406.5938 C400.5656,406.1875 400.8938,405.7344 400.8938,405.3438 C400.8938,404.8906 400.5031,404.5 400.0344,404.5 C399.8156,404.5 399.6125,404.5781 399.425,404.7656 C398.9719,405.25 398.9719,405.25 398.7844,405.3438 C398.3625,405.6094 397.675,405.7344 396.9094,405.7344 C394.8625,405.7344 393.5656,404.6406 393.5656,402.9375 L393.5656,401.8438 C393.5656,400.0625 394.8156,398.75 396.55,398.75 C397.1281,398.75 397.7375,398.9063 398.2063,399.1563 C398.6906,399.4375 398.8625,399.6563 398.9563,400.0625 C399.0188,400.4688 399.05,400.5938 399.1906,400.7188 C399.3313,400.8594 399.5656,400.9688 399.7844,400.9688 C400.05,400.9688 400.3156,400.8281 400.4875,400.6094 C400.5969,400.4531 400.6281,400.2656 400.6281,399.8438 L400.6281,398.4219 C400.6281,397.9844 400.6125,397.8594 400.5188,397.7031 C400.3625,397.4375 400.0813,397.2969 399.7844,397.2969 C399.4875,397.2969 399.2844,397.3906 399.0656,397.7031 L398.8938,397.625 Z " fill="#000000"/><text fill="#000000" font-family="sans-serif" font-size="12" lengthAdjust="spacing" textLength="82" x="412.45" y="406.1074">processIPSEC</text><line style="stroke:#A80036;stroke-width:1.5;" x1="374" x2="505" y1="417.9531" y2="417.9531"/><line style="stroke:#A80036;stroke-width:1.5;" x1="374" x2="505" y1="425.9531" y2="425.9531"/><text fill="#000000" font-family="sans-serif" font-size="11" lengthAdjust="spacing" textLength="121" x="379" y="440.1636">processing(p: packet)</text><!--MD5=[64ced996724f87e80a6eca9ff1d0c0d7]
class processHTTP--><rect codeLine="50" fill="#FEFECE" filter="url(#fxax0b8dj3uag)" height="60.8047" id="processHTTP" style="stroke:#A80036;stroke-width:1.5;" width="133" x="556" y="385.9531"/><ellipse cx="580.9" cy="401.9531" fill="#ADD1B2" rx="11" ry="11" style="stroke:#A80036;stroke-width:1.0;"/><path d="M583.2438,397.625 C582.3063,397.1875 581.7125,397.0469 580.8375,397.0469 C578.2125,397.0469 576.2125,399.125 576.2125,401.8438 L576.2125,402.9688 C576.2125,405.5469 578.3219,407.4375 581.2125,407.4375 C582.4313,407.4375 583.5875,407.1406 584.3375,406.5938 C584.9156,406.1875 585.2438,405.7344 585.2438,405.3438 C585.2438,404.8906 584.8531,404.5 584.3844,404.5 C584.1656,404.5 583.9625,404.5781 583.775,404.7656 C583.3219,405.25 583.3219,405.25 583.1344,405.3438 C582.7125,405.6094 582.025,405.7344 581.2594,405.7344 C579.2125,405.7344 577.9156,404.6406 577.9156,402.9375 L577.9156,401.8438 C577.9156,400.0625 579.1656,398.75 580.9,398.75 C581.4781,398.75 582.0875,398.9063 582.5563,399.1563 C583.0406,399.4375 583.2125,399.6563 583.3063,400.0625 C583.3688,400.4688 583.4,400.5938 583.5406,400.7188 C583.6813,400.8594 583.9156,400.9688 584.1344,400.9688 C584.4,400.9688 584.6656,400.8281 584.8375,400.6094 C584.9469,400.4531 584.9781,400.2656 584.9781,399.8438 L584.9781,398.4219 C584.9781,397.9844 584.9625,397.8594 584.8688,397.7031 C584.7125,397.4375 584.4313,397.2969 584.1344,397.2969 C583.8375,397.2969 583.6344,397.3906 583.4156,397.7031 L583.2438,397.625 Z " fill="#000000"/><text fill="#000000" font-family="sans-serif" font-size="12" lengthAdjust="spacing" textLength="79" x="597.1" y="406.1074">processHTTP</text><line style="stroke:#A80036;stroke-width:1.5;" x1="557" x2="688" y1="417.9531" y2="417.9531"/><line style="stroke:#A80036;stroke-width:1.5;" x1="557" x2="688" y1="425.9531" y2="425.9531"/><text fill="#000000" font-family="sans-serif" font-size="11" lengthAdjust="spacing" textLength="121" x="562" y="440.1636">processing(p: packet)</text><!--MD5=[ed6624c6556d5e7b1bd23032162d20b7]
class Client--><rect codeLine="54" fill="#FEFECE" filter="url(#fxax0b8dj3uag)" height="48" id="Client" style="stroke:#A80036;stroke-width:1.5;" width="65" x="224" y="27.9531"/><ellipse cx="239" cy="43.9531" fill="#ADD1B2" rx="11" ry="11" style="stroke:#A80036;stroke-width:1.0;"/><path d="M241.3438,39.625 C240.4063,39.1875 239.8125,39.0469 238.9375,39.0469 C236.3125,39.0469 234.3125,41.125 234.3125,43.8438 L234.3125,44.9688 C234.3125,47.5469 236.4219,49.4375 239.3125,49.4375 C240.5313,49.4375 241.6875,49.1406 242.4375,48.5938 C243.0156,48.1875 243.3438,47.7344 243.3438,47.3438 C243.3438,46.8906 242.9531,46.5 242.4844,46.5 C242.2656,46.5 242.0625,46.5781 241.875,46.7656 C241.4219,47.25 241.4219,47.25 241.2344,47.3438 C240.8125,47.6094 240.125,47.7344 239.3594,47.7344 C237.3125,47.7344 236.0156,46.6406 236.0156,44.9375 L236.0156,43.8438 C236.0156,42.0625 237.2656,40.75 239,40.75 C239.5781,40.75 240.1875,40.9063 240.6563,41.1563 C241.1406,41.4375 241.3125,41.6563 241.4063,42.0625 C241.4688,42.4688 241.5,42.5938 241.6406,42.7188 C241.7813,42.8594 242.0156,42.9688 242.2344,42.9688 C242.5,42.9688 242.7656,42.8281 242.9375,42.6094 C243.0469,42.4531 243.0781,42.2656 243.0781,41.8438 L243.0781,40.4219 C243.0781,39.9844 243.0625,39.8594 242.9688,39.7031 C242.8125,39.4375 242.5313,39.2969 242.2344,39.2969 C241.9375,39.2969 241.7344,39.3906 241.5156,39.7031 L241.3438,39.625 Z " fill="#000000"/><text fill="#000000" font-family="sans-serif" font-size="12" lengthAdjust="spacing" textLength="33" x="253" y="48.1074">Client</text><line style="stroke:#A80036;stroke-width:1.5;" x1="225" x2="288" y1="59.9531" y2="59.9531"/><line style="stroke:#A80036;stroke-width:1.5;" x1="225" x2="288" y1="67.9531" y2="67.9531"/><!--MD5=[7e5d6cfc0ef04038601296a5286bdd38]
link Client to PacketHandler--><path codeLine="59" d="M273.831,76.0921 C283.529,89.0411 296.041,105.7471 307.993,121.7051 " fill="none" id="Client-to-PacketHandler" style="stroke:#A80036;stroke-width:1.0;"/><polygon fill="#A80036" points="311.017,125.7431,308.8225,116.1419,308.0193,121.7414,302.4197,120.9382,311.017,125.7431" style="stroke:#A80036;stroke-width:1.0;"/><!--MD5=[1a7e52d57dc53d98083fe0ad950c6ec8]
link Client to packet--><path codeLine="60" d="M239.169,76.0921 C225.439,94.4241 206.067,120.2891 190.634,140.8951 " fill="none" id="Client-to-packet" style="stroke:#A80036;stroke-width:1.0;"/><polygon fill="#A80036" points="187.603,144.9421,196.2,140.1367,190.6005,140.9402,189.797,135.3407,187.603,144.9421" style="stroke:#A80036;stroke-width:1.0;"/><!--MD5=[66241b757ec24322d630caf8dee42cf1]
link packet to PacketHandler--><path codeLine="61" d="M210.289,175.4531 C226.815,175.4531 243.341,175.4531 259.867,175.4531 " fill="none" id="packet-PacketHandler" style="stroke:#A80036;stroke-width:1.0;"/><text fill="#000000" font-family="sans-serif" font-size="13" lengthAdjust="spacing" textLength="8" x="218.0647" y="171.3509">1</text><text fill="#000000" font-family="sans-serif" font-size="13" lengthAdjust="spacing" textLength="7" x="245.0353" y="171.8718">*</text><!--MD5=[749251b6b74aa45573db5ace9d4274f8]
reverse link PacketHandler to Process--><path codeLine="62" d="M347.5,238.3141 C347.5,251.0081 347.5,263.8141 347.5,274.7331 " fill="none" id="PacketHandler-backto-Process" style="stroke:#A80036;stroke-width:1.0;"/><polygon fill="#FFFFFF" points="347.5,225.2091,343.5,231.2091,347.5,237.2091,351.5,231.2091,347.5,225.2091" style="stroke:#A80036;stroke-width:1.0;"/><!--MD5=[a7a3a43c2f4cd5e2809af7d61cdc5e7a]
reverse link Process to processSSH--><path codeLine="63" d="M262.104,340.4241 C222.744,356.0825 176.727,374.3883 140.001,388.9982 " fill="none" id="Process-backto-processSSH" style="stroke:#A80036;stroke-width:1.0;"/><polygon fill="none" points="259.651,333.8671,280.822,332.9781,264.826,346.8751,259.651,333.8671" style="stroke:#A80036;stroke-width:1.0;"/><!--MD5=[31236f496b7b0fac42d0166520602079]
reverse link Process to processTLS--><path codeLine="64" d="M309.622,351.8234 C300.072,363.2627 290.06,375.2543 281.336,385.7044 " fill="none" id="Process-backto-processTLS" style="stroke:#A80036;stroke-width:1.0;"/><polygon fill="none" points="304.443,347.1046,322.634,336.2381,315.19,356.0769,304.443,347.1046" style="stroke:#A80036;stroke-width:1.0;"/><!--MD5=[c447f8e333c7abf991b7689b242057de]
reverse link Process to processIPSEC--><path codeLine="65" d="M385.794,351.8234 C395.449,363.2627 405.571,375.2543 414.391,385.7044 " fill="none" id="Process-backto-processIPSEC" style="stroke:#A80036;stroke-width:1.0;"/><polygon fill="none" points="380.19,356.0365,372.639,336.2381,390.889,347.0065,380.19,356.0365" style="stroke:#A80036;stroke-width:1.0;"/><!--MD5=[09c2c0349512d9eabdbf7462b5ef4c8d]
reverse link Process to processHTTP--><path codeLine="66" d="M432.859,340.2861 C472.381,355.9513 518.649,374.2904 555.59,388.9324 " fill="none" id="Process-backto-processHTTP" style="stroke:#A80036;stroke-width:1.0;"/><polygon fill="none" points="430.083,346.7161,414.07,332.8391,435.242,333.7011,430.083,346.7161" style="stroke:#A80036;stroke-width:1.0;"/><!--MD5=[ed44c79ea1bc1af1838430bedeb2c12a]
@startuml
' Settings
' ============================

' use +,#,- instead of icons
'skinparam classAttributeIconSize 0

' horizontal distance in px
skinparam nodesep 50 

' vertical distance in px
skinparam ranksep 50

' use only straight lines (ortho/polyline)
'skinparam linetype ortho

' title
title Strategy Pattern Example



' Classes
' ============================
class packet{
+ data: string
}

abstract class Process{
{abstract} processing(p: packet)
}

class PacketHandler{
+ packet: packet
- process: Process
setProcess(process: Process)
doProcessing()
}

class processSSH{
processing(p: packet)
}

class processTLS{
processing(p: packet)
}

class processIPSEC{
processing(p: packet)
}

class processHTTP{
processing(p: packet)
}

class Client {
}

' Relations
' ============================
Client -right-> PacketHandler
Client -down-> packet
packet "1" -right- "*" PacketHandler
PacketHandler o- - Process
Process <|- - processSSH
Process <|- - processTLS
Process <|- - processIPSEC
Process <|- - processHTTP
@enduml

@startuml


skinparam nodesep 50 

skinparam ranksep 50


title Strategy Pattern Example



class packet{
+ data: string
}

abstract class Process{
{abstract} processing(p: packet)
}

class PacketHandler{
+ packet: packet
- process: Process
setProcess(process: Process)
doProcessing()
}

class processSSH{
processing(p: packet)
}

class processTLS{
processing(p: packet)
}

class processIPSEC{
processing(p: packet)
}

class processHTTP{
processing(p: packet)
}

class Client {
}

Client -right-> PacketHandler
Client -down-> packet
packet "1" -right- "*" PacketHandler
PacketHandler o- - Process
Process <|- - processSSH
Process <|- - processTLS
Process <|- - processIPSEC
Process <|- - processHTTP
@enduml

PlantUML version 1.2021.01(Tue Feb 02 07:55:08 UTC 2021)
(GPL source distribution)
Java Runtime: Java(TM) SE Runtime Environment
JVM: Java HotSpot(TM) 64-Bit Server VM
Default Encoding: UTF-8
Language: en
Country: US
--></g></svg>