<?xml version="1.0" encoding="UTF-8" standalone="no"?><svg xmlns="http://www.w3.org/2000/svg" xmlns:xlink="http://www.w3.org/1999/xlink" contentScriptType="application/ecmascript" contentStyleType="text/css" height="285px" preserveAspectRatio="none" style="width:348px;height:285px;" version="1.1" viewBox="0 0 348 285" width="348px" zoomAndPan="magnify"><defs><filter height="300%" id="fwimxqvzce66r" width="300%" x="-1" y="-1"><feGaussianBlur result="blurOut" stdDeviation="2.0"/><feColorMatrix in="blurOut" result="blurOut2" type="matrix" values="0 0 0 0 0 0 0 0 0 0 0 0 0 0 0 0 0 0 .4 0"/><feOffset dx="4.0" dy="4.0" in="blurOut2" result="blurOut3"/><feBlend in="SourceGraphic" in2="blurOut3" mode="normal"/></filter></defs><g><text fill="#000000" font-family="sans-serif" font-size="18" lengthAdjust="spacingAndGlyphs" textLength="124" x="105.75" y="16.708">Car Relations</text><!--MD5=[3f0ef310aaa84a542276992c5216544d]
class Car--><rect codeLine="23" fill="#FEFECE" filter="url(#fwimxqvzce66r)" height="48" id="Car" style="stroke:#A80036;stroke-width:1.5;" width="52" x="170.5" y="125.9531"/><ellipse cx="185.5" cy="141.9531" fill="#ADD1B2" rx="11" ry="11" style="stroke:#A80036;stroke-width:1.0;"/><path d="M187.8438,137.625 C186.9063,137.1875 186.3125,137.0469 185.4375,137.0469 C182.8125,137.0469 180.8125,139.125 180.8125,141.8438 L180.8125,142.9688 C180.8125,145.5469 182.9219,147.4375 185.8125,147.4375 C187.0313,147.4375 188.1875,147.1406 188.9375,146.5938 C189.5156,146.1875 189.8438,145.7344 189.8438,145.3438 C189.8438,144.8906 189.4531,144.5 188.9844,144.5 C188.7656,144.5 188.5625,144.5781 188.375,144.7656 C187.9219,145.25 187.9219,145.25 187.7344,145.3438 C187.3125,145.6094 186.625,145.7344 185.8594,145.7344 C183.8125,145.7344 182.5156,144.6406 182.5156,142.9375 L182.5156,141.8438 C182.5156,140.0625 183.7656,138.75 185.5,138.75 C186.0781,138.75 186.6875,138.9063 187.1563,139.1563 C187.6406,139.4375 187.8125,139.6563 187.9063,140.0625 C187.9688,140.4688 188,140.5938 188.1406,140.7188 C188.2813,140.8594 188.5156,140.9688 188.7344,140.9688 C189,140.9688 189.2656,140.8281 189.4375,140.6094 C189.5469,140.4531 189.5781,140.2656 189.5781,139.8438 L189.5781,138.4219 C189.5781,137.9844 189.5625,137.8594 189.4688,137.7031 C189.3125,137.4375 189.0313,137.2969 188.7344,137.2969 C188.4375,137.2969 188.2344,137.3906 188.0156,137.7031 L187.8438,137.625 Z " fill="#000000"/><text fill="#000000" font-family="sans-serif" font-size="12" lengthAdjust="spacingAndGlyphs" textLength="20" x="199.5" y="146.1074">Car</text><line style="stroke:#A80036;stroke-width:1.5;" x1="171.5" x2="221.5" y1="157.9531" y2="157.9531"/><line style="stroke:#A80036;stroke-width:1.5;" x1="171.5" x2="221.5" y1="165.9531" y2="165.9531"/><!--MD5=[3aa0d89c6bfdcbf7f32042cedac57549]
class Vehicle--><rect codeLine="26" fill="#FEFECE" filter="url(#fwimxqvzce66r)" height="48" id="Vehicle" style="stroke:#A80036;stroke-width:1.5;" width="76" x="158.5" y="27.9531"/><ellipse cx="173.5" cy="43.9531" fill="#ADD1B2" rx="11" ry="11" style="stroke:#A80036;stroke-width:1.0;"/><path d="M175.8438,39.625 C174.9063,39.1875 174.3125,39.0469 173.4375,39.0469 C170.8125,39.0469 168.8125,41.125 168.8125,43.8438 L168.8125,44.9688 C168.8125,47.5469 170.9219,49.4375 173.8125,49.4375 C175.0313,49.4375 176.1875,49.1406 176.9375,48.5938 C177.5156,48.1875 177.8438,47.7344 177.8438,47.3438 C177.8438,46.8906 177.4531,46.5 176.9844,46.5 C176.7656,46.5 176.5625,46.5781 176.375,46.7656 C175.9219,47.25 175.9219,47.25 175.7344,47.3438 C175.3125,47.6094 174.625,47.7344 173.8594,47.7344 C171.8125,47.7344 170.5156,46.6406 170.5156,44.9375 L170.5156,43.8438 C170.5156,42.0625 171.7656,40.75 173.5,40.75 C174.0781,40.75 174.6875,40.9063 175.1563,41.1563 C175.6406,41.4375 175.8125,41.6563 175.9063,42.0625 C175.9688,42.4688 176,42.5938 176.1406,42.7188 C176.2813,42.8594 176.5156,42.9688 176.7344,42.9688 C177,42.9688 177.2656,42.8281 177.4375,42.6094 C177.5469,42.4531 177.5781,42.2656 177.5781,41.8438 L177.5781,40.4219 C177.5781,39.9844 177.5625,39.8594 177.4688,39.7031 C177.3125,39.4375 177.0313,39.2969 176.7344,39.2969 C176.4375,39.2969 176.2344,39.3906 176.0156,39.7031 L175.8438,39.625 Z " fill="#000000"/><text fill="#000000" font-family="sans-serif" font-size="12" lengthAdjust="spacingAndGlyphs" textLength="44" x="187.5" y="48.1074">Vehicle</text><line style="stroke:#A80036;stroke-width:1.5;" x1="159.5" x2="233.5" y1="59.9531" y2="59.9531"/><line style="stroke:#A80036;stroke-width:1.5;" x1="159.5" x2="233.5" y1="67.9531" y2="67.9531"/><!--MD5=[7ac04296dfad1ebe800ea06895cee569]
class CarDealership--><rect codeLine="29" fill="#FEFECE" filter="url(#fwimxqvzce66r)" height="48" id="CarDealership" style="stroke:#A80036;stroke-width:1.5;" width="117" x="138" y="223.9531"/><ellipse cx="153" cy="239.9531" fill="#ADD1B2" rx="11" ry="11" style="stroke:#A80036;stroke-width:1.0;"/><path d="M155.3438,235.625 C154.4063,235.1875 153.8125,235.0469 152.9375,235.0469 C150.3125,235.0469 148.3125,237.125 148.3125,239.8438 L148.3125,240.9688 C148.3125,243.5469 150.4219,245.4375 153.3125,245.4375 C154.5313,245.4375 155.6875,245.1406 156.4375,244.5938 C157.0156,244.1875 157.3438,243.7344 157.3438,243.3438 C157.3438,242.8906 156.9531,242.5 156.4844,242.5 C156.2656,242.5 156.0625,242.5781 155.875,242.7656 C155.4219,243.25 155.4219,243.25 155.2344,243.3438 C154.8125,243.6094 154.125,243.7344 153.3594,243.7344 C151.3125,243.7344 150.0156,242.6406 150.0156,240.9375 L150.0156,239.8438 C150.0156,238.0625 151.2656,236.75 153,236.75 C153.5781,236.75 154.1875,236.9063 154.6563,237.1563 C155.1406,237.4375 155.3125,237.6563 155.4063,238.0625 C155.4688,238.4688 155.5,238.5938 155.6406,238.7188 C155.7813,238.8594 156.0156,238.9688 156.2344,238.9688 C156.5,238.9688 156.7656,238.8281 156.9375,238.6094 C157.0469,238.4531 157.0781,238.2656 157.0781,237.8438 L157.0781,236.4219 C157.0781,235.9844 157.0625,235.8594 156.9688,235.7031 C156.8125,235.4375 156.5313,235.2969 156.2344,235.2969 C155.9375,235.2969 155.7344,235.3906 155.5156,235.7031 L155.3438,235.625 Z " fill="#000000"/><text fill="#000000" font-family="sans-serif" font-size="12" lengthAdjust="spacingAndGlyphs" textLength="85" x="167" y="244.1074">CarDealership</text><line style="stroke:#A80036;stroke-width:1.5;" x1="139" x2="254" y1="255.9531" y2="255.9531"/><line style="stroke:#A80036;stroke-width:1.5;" x1="139" x2="254" y1="263.9531" y2="263.9531"/><!--MD5=[fbcb1dceea9c260248071806a7ce1500]
class Road--><rect codeLine="32" fill="#FEFECE" filter="url(#fwimxqvzce66r)" height="48" id="Road" style="stroke:#A80036;stroke-width:1.5;" width="62" x="272.5" y="125.9531"/><ellipse cx="287.5" cy="141.9531" fill="#ADD1B2" rx="11" ry="11" style="stroke:#A80036;stroke-width:1.0;"/><path d="M289.8438,137.625 C288.9063,137.1875 288.3125,137.0469 287.4375,137.0469 C284.8125,137.0469 282.8125,139.125 282.8125,141.8438 L282.8125,142.9688 C282.8125,145.5469 284.9219,147.4375 287.8125,147.4375 C289.0313,147.4375 290.1875,147.1406 290.9375,146.5938 C291.5156,146.1875 291.8438,145.7344 291.8438,145.3438 C291.8438,144.8906 291.4531,144.5 290.9844,144.5 C290.7656,144.5 290.5625,144.5781 290.375,144.7656 C289.9219,145.25 289.9219,145.25 289.7344,145.3438 C289.3125,145.6094 288.625,145.7344 287.8594,145.7344 C285.8125,145.7344 284.5156,144.6406 284.5156,142.9375 L284.5156,141.8438 C284.5156,140.0625 285.7656,138.75 287.5,138.75 C288.0781,138.75 288.6875,138.9063 289.1563,139.1563 C289.6406,139.4375 289.8125,139.6563 289.9063,140.0625 C289.9688,140.4688 290,140.5938 290.1406,140.7188 C290.2813,140.8594 290.5156,140.9688 290.7344,140.9688 C291,140.9688 291.2656,140.8281 291.4375,140.6094 C291.5469,140.4531 291.5781,140.2656 291.5781,139.8438 L291.5781,138.4219 C291.5781,137.9844 291.5625,137.8594 291.4688,137.7031 C291.3125,137.4375 291.0313,137.2969 290.7344,137.2969 C290.4375,137.2969 290.2344,137.3906 290.0156,137.7031 L289.8438,137.625 Z " fill="#000000"/><text fill="#000000" font-family="sans-serif" font-size="12" lengthAdjust="spacingAndGlyphs" textLength="30" x="301.5" y="146.1074">Road</text><line style="stroke:#A80036;stroke-width:1.5;" x1="273.5" x2="333.5" y1="157.9531" y2="157.9531"/><line style="stroke:#A80036;stroke-width:1.5;" x1="273.5" x2="333.5" y1="165.9531" y2="165.9531"/><!--MD5=[2145d3acc3e1d933aedd8d638120a59b]
class SerialNumber--><rect codeLine="35" fill="#FEFECE" filter="url(#fwimxqvzce66r)" height="48" id="SerialNumber" style="stroke:#A80036;stroke-width:1.5;" width="113" x="7" y="125.9531"/><ellipse cx="22" cy="141.9531" fill="#ADD1B2" rx="11" ry="11" style="stroke:#A80036;stroke-width:1.0;"/><path d="M24.3438,137.625 C23.4063,137.1875 22.8125,137.0469 21.9375,137.0469 C19.3125,137.0469 17.3125,139.125 17.3125,141.8438 L17.3125,142.9688 C17.3125,145.5469 19.4219,147.4375 22.3125,147.4375 C23.5313,147.4375 24.6875,147.1406 25.4375,146.5938 C26.0156,146.1875 26.3438,145.7344 26.3438,145.3438 C26.3438,144.8906 25.9531,144.5 25.4844,144.5 C25.2656,144.5 25.0625,144.5781 24.875,144.7656 C24.4219,145.25 24.4219,145.25 24.2344,145.3438 C23.8125,145.6094 23.125,145.7344 22.3594,145.7344 C20.3125,145.7344 19.0156,144.6406 19.0156,142.9375 L19.0156,141.8438 C19.0156,140.0625 20.2656,138.75 22,138.75 C22.5781,138.75 23.1875,138.9063 23.6563,139.1563 C24.1406,139.4375 24.3125,139.6563 24.4063,140.0625 C24.4688,140.4688 24.5,140.5938 24.6406,140.7188 C24.7813,140.8594 25.0156,140.9688 25.2344,140.9688 C25.5,140.9688 25.7656,140.8281 25.9375,140.6094 C26.0469,140.4531 26.0781,140.2656 26.0781,139.8438 L26.0781,138.4219 C26.0781,137.9844 26.0625,137.8594 25.9688,137.7031 C25.8125,137.4375 25.5313,137.2969 25.2344,137.2969 C24.9375,137.2969 24.7344,137.3906 24.5156,137.7031 L24.3438,137.625 Z " fill="#000000"/><text fill="#000000" font-family="sans-serif" font-size="12" lengthAdjust="spacingAndGlyphs" textLength="81" x="36" y="146.1074">SerialNumber</text><line style="stroke:#A80036;stroke-width:1.5;" x1="8" x2="119" y1="157.9531" y2="157.9531"/><line style="stroke:#A80036;stroke-width:1.5;" x1="8" x2="119" y1="165.9531" y2="165.9531"/><!--MD5=[22dd0d5001cffe3a5a97c942353cd104]
reverse link Vehicle to Car--><path codeLine="41" d="M196.5,96.2081 C196.5,106.4541 196.5,116.9921 196.5,125.9281 " fill="none" id="Vehicle-backto-Car" style="stroke:#A80036;stroke-width:1.0;"/><polygon fill="none" points="189.5,96.1921,196.5,76.1921,203.5,96.1921,189.5,96.1921" style="stroke:#A80036;stroke-width:1.0;"/><!--MD5=[684e22c3400208eb19d62a686dfaf7c9]
link Car to Road--><path codeLine="42" d="M222.832,149.9531 C239.323,149.9531 255.813,149.9531 272.304,149.9531 " fill="none" id="Car-Road" style="stroke:#A80036;stroke-width:1.0;"/><!--MD5=[d2d9bc867b0247297c51b68151af2a4b]
link Car to CarDealership--><path codeLine="43" d="M196.5,174.192 C196.5,185.1585 196.5,198.4994 196.5,210.7481 " fill="none" id="Car-to-CarDealership" style="stroke:#A80036;stroke-width:1.0;"/><polygon fill="#FFFFFF" points="196.5,223.9282,200.5,217.9282,196.5,211.9282,192.5,217.9282,196.5,223.9282" style="stroke:#A80036;stroke-width:1.0;"/><!--MD5=[54f713b2a7d4c3e31ea056871d300fe8]
link SerialNumber to Car--><path codeLine="44" d="M120.129,149.9531 C132.398,149.9531 144.666,149.9531 156.935,149.9531 " fill="none" id="SerialNumber-to-Car" style="stroke:#A80036;stroke-width:1.0;"/><polygon fill="#A80036" points="170.247,149.9531,164.247,145.9531,158.247,149.9531,164.247,153.9531,170.247,149.9531" style="stroke:#A80036;stroke-width:1.0;"/><!--MD5=[53ea740aa6ef8a553814a91078202f56]
@startuml
' Settings
' ============================

' use +,#,- instead of icons
'skinparam classAttributeIconSize 0

' horizontal distance in px
skinparam nodesep 50 

' vertical distance in px
skinparam ranksep 50

' use only straight lines (ortho/polyline)
'skinparam linetype ortho

' title
title Car Relations



' Classes
' ============================
class Car{
}

class Vehicle{
}

class CarDealership{
}

class Road{
}

class SerialNumber{
}


' Relations
' ============================
Vehicle <|-down- Car
Road -left- Car
CarDealership o-up- Car
SerialNumber -right-* Car
@enduml

@startuml


skinparam nodesep 50 

skinparam ranksep 50


title Car Relations



class Car{
}

class Vehicle{
}

class CarDealership{
}

class Road{
}

class SerialNumber{
}


Vehicle <|-down- Car
Road -left- Car
CarDealership o-up- Car
SerialNumber -right-* Car
@enduml

PlantUML version 1.2020.21beta7(Unknown compile time)
(GPL source distribution)
Java Runtime: Java(TM) SE Runtime Environment
JVM: Java HotSpot(TM) 64-Bit Server VM
Default Encoding: UTF-8
Language: en
Country: US
--></g></svg>