<?xml version="1.0" encoding="UTF-8" standalone="no"?><svg xmlns="http://www.w3.org/2000/svg" xmlns:xlink="http://www.w3.org/1999/xlink" contentScriptType="application/ecmascript" contentStyleType="text/css" height="362px" preserveAspectRatio="none" style="width:548px;height:362px;" version="1.1" viewBox="0 0 548 362" width="548px" zoomAndPan="magnify"><defs><filter height="300%" id="fzascmb3thuj9" width="300%" x="-1" y="-1"><feGaussianBlur result="blurOut" stdDeviation="2.0"/><feColorMatrix in="blurOut" result="blurOut2" type="matrix" values="0 0 0 0 0 0 0 0 0 0 0 0 0 0 0 0 0 0 .4 0"/><feOffset dx="4.0" dy="4.0" in="blurOut2" result="blurOut3"/><feBlend in="SourceGraphic" in2="blurOut3" mode="normal"/></filter></defs><g><text fill="#000000" font-family="sans-serif" font-size="18" lengthAdjust="spacingAndGlyphs" textLength="133" x="201.25" y="16.708">Car Attributes</text><!--MD5=[3f0ef310aaa84a542276992c5216544d]
class Car--><rect codeLine="23" fill="#FEFECE" filter="url(#fzascmb3thuj9)" height="86.4141" id="Car" style="stroke:#A80036;stroke-width:1.5;" width="196" x="148.5" y="151.9531"/><ellipse cx="232.25" cy="167.9531" fill="#ADD1B2" rx="11" ry="11" style="stroke:#A80036;stroke-width:1.0;"/><path d="M234.5938,163.625 C233.6563,163.1875 233.0625,163.0469 232.1875,163.0469 C229.5625,163.0469 227.5625,165.125 227.5625,167.8438 L227.5625,168.9688 C227.5625,171.5469 229.6719,173.4375 232.5625,173.4375 C233.7813,173.4375 234.9375,173.1406 235.6875,172.5938 C236.2656,172.1875 236.5938,171.7344 236.5938,171.3438 C236.5938,170.8906 236.2031,170.5 235.7344,170.5 C235.5156,170.5 235.3125,170.5781 235.125,170.7656 C234.6719,171.25 234.6719,171.25 234.4844,171.3438 C234.0625,171.6094 233.375,171.7344 232.6094,171.7344 C230.5625,171.7344 229.2656,170.6406 229.2656,168.9375 L229.2656,167.8438 C229.2656,166.0625 230.5156,164.75 232.25,164.75 C232.8281,164.75 233.4375,164.9063 233.9063,165.1563 C234.3906,165.4375 234.5625,165.6563 234.6563,166.0625 C234.7188,166.4688 234.75,166.5938 234.8906,166.7188 C235.0313,166.8594 235.2656,166.9688 235.4844,166.9688 C235.75,166.9688 236.0156,166.8281 236.1875,166.6094 C236.2969,166.4531 236.3281,166.2656 236.3281,165.8438 L236.3281,164.4219 C236.3281,163.9844 236.3125,163.8594 236.2188,163.7031 C236.0625,163.4375 235.7813,163.2969 235.4844,163.2969 C235.1875,163.2969 234.9844,163.3906 234.7656,163.7031 L234.5938,163.625 Z " fill="#000000"/><text fill="#000000" font-family="sans-serif" font-size="12" lengthAdjust="spacingAndGlyphs" textLength="20" x="252.75" y="172.1074">Car</text><line style="stroke:#A80036;stroke-width:1.5;" x1="149.5" x2="343.5" y1="183.9531" y2="183.9531"/><ellipse cx="159.5" cy="194.9531" fill="none" rx="3" ry="3" style="stroke:#038048;stroke-width:1.0;"/><text fill="#000000" font-family="sans-serif" font-size="11" lengthAdjust="spacingAndGlyphs" textLength="170" x="168.5" y="198.1636">passengerCount: unsigned int</text><rect fill="none" height="6" style="stroke:#C82930;stroke-width:1.0;" width="6" x="156.5" y="204.7578"/><text fill="#000000" font-family="sans-serif" font-size="11" lengthAdjust="spacingAndGlyphs" textLength="74" x="168.5" y="210.9683">model: string</text><polygon fill="none" points="159.5,215.5625,163.5,219.5625,159.5,223.5625,155.5,219.5625" style="stroke:#B38D22;stroke-width:1.0;"/><text fill="#000000" font-family="sans-serif" font-size="11" lengthAdjust="spacingAndGlyphs" textLength="100" x="168.5" y="223.7729">fuelLevel: double</text><line style="stroke:#A80036;stroke-width:1.5;" x1="149.5" x2="343.5" y1="230.3672" y2="230.3672"/><!--MD5=[eee9d396a8aca12c6c152931e8dc1ab6]
class Driver--><rect codeLine="29" fill="#FEFECE" filter="url(#fzascmb3thuj9)" height="73.6094" id="Driver" style="stroke:#A80036;stroke-width:1.5;" width="125" x="184" y="27.9531"/><ellipse cx="224.2" cy="43.9531" fill="#ADD1B2" rx="11" ry="11" style="stroke:#A80036;stroke-width:1.0;"/><path d="M226.5438,39.625 C225.6063,39.1875 225.0125,39.0469 224.1375,39.0469 C221.5125,39.0469 219.5125,41.125 219.5125,43.8438 L219.5125,44.9688 C219.5125,47.5469 221.6219,49.4375 224.5125,49.4375 C225.7313,49.4375 226.8875,49.1406 227.6375,48.5938 C228.2156,48.1875 228.5438,47.7344 228.5438,47.3438 C228.5438,46.8906 228.1531,46.5 227.6844,46.5 C227.4656,46.5 227.2625,46.5781 227.075,46.7656 C226.6219,47.25 226.6219,47.25 226.4344,47.3438 C226.0125,47.6094 225.325,47.7344 224.5594,47.7344 C222.5125,47.7344 221.2156,46.6406 221.2156,44.9375 L221.2156,43.8438 C221.2156,42.0625 222.4656,40.75 224.2,40.75 C224.7781,40.75 225.3875,40.9063 225.8563,41.1563 C226.3406,41.4375 226.5125,41.6563 226.6063,42.0625 C226.6688,42.4688 226.7,42.5938 226.8406,42.7188 C226.9813,42.8594 227.2156,42.9688 227.4344,42.9688 C227.7,42.9688 227.9656,42.8281 228.1375,42.6094 C228.2469,42.4531 228.2781,42.2656 228.2781,41.8438 L228.2781,40.4219 C228.2781,39.9844 228.2625,39.8594 228.1688,39.7031 C228.0125,39.4375 227.7313,39.2969 227.4344,39.2969 C227.1375,39.2969 226.9344,39.3906 226.7156,39.7031 L226.5438,39.625 Z " fill="#000000"/><text fill="#000000" font-family="sans-serif" font-size="12" lengthAdjust="spacingAndGlyphs" textLength="37" x="243.8" y="48.1074">Driver</text><line style="stroke:#A80036;stroke-width:1.5;" x1="185" x2="308" y1="59.9531" y2="59.9531"/><ellipse cx="195" cy="70.9531" fill="none" rx="3" ry="3" style="stroke:#038048;stroke-width:1.0;"/><text fill="#000000" font-family="sans-serif" font-size="11" lengthAdjust="spacingAndGlyphs" textLength="99" x="204" y="74.1636">age: unsigned int</text><rect fill="none" height="6" style="stroke:#C82930;stroke-width:1.0;" width="6" x="192" y="80.7578"/><text fill="#000000" font-family="sans-serif" font-size="11" lengthAdjust="spacingAndGlyphs" textLength="71" x="204" y="86.9683">name: string</text><line style="stroke:#A80036;stroke-width:1.5;" x1="185" x2="308" y1="93.5625" y2="93.5625"/><!--MD5=[7ac04296dfad1ebe800ea06895cee569]
class CarDealership--><rect codeLine="34" fill="#FEFECE" filter="url(#fzascmb3thuj9)" height="60.8047" id="CarDealership" style="stroke:#A80036;stroke-width:1.5;" width="117" x="188" y="287.9531"/><ellipse cx="203" cy="303.9531" fill="#ADD1B2" rx="11" ry="11" style="stroke:#A80036;stroke-width:1.0;"/><path d="M205.3438,299.625 C204.4063,299.1875 203.8125,299.0469 202.9375,299.0469 C200.3125,299.0469 198.3125,301.125 198.3125,303.8438 L198.3125,304.9688 C198.3125,307.5469 200.4219,309.4375 203.3125,309.4375 C204.5313,309.4375 205.6875,309.1406 206.4375,308.5938 C207.0156,308.1875 207.3438,307.7344 207.3438,307.3438 C207.3438,306.8906 206.9531,306.5 206.4844,306.5 C206.2656,306.5 206.0625,306.5781 205.875,306.7656 C205.4219,307.25 205.4219,307.25 205.2344,307.3438 C204.8125,307.6094 204.125,307.7344 203.3594,307.7344 C201.3125,307.7344 200.0156,306.6406 200.0156,304.9375 L200.0156,303.8438 C200.0156,302.0625 201.2656,300.75 203,300.75 C203.5781,300.75 204.1875,300.9063 204.6563,301.1563 C205.1406,301.4375 205.3125,301.6563 205.4063,302.0625 C205.4688,302.4688 205.5,302.5938 205.6406,302.7188 C205.7813,302.8594 206.0156,302.9688 206.2344,302.9688 C206.5,302.9688 206.7656,302.8281 206.9375,302.6094 C207.0469,302.4531 207.0781,302.2656 207.0781,301.8438 L207.0781,300.4219 C207.0781,299.9844 207.0625,299.8594 206.9688,299.7031 C206.8125,299.4375 206.5313,299.2969 206.2344,299.2969 C205.9375,299.2969 205.7344,299.3906 205.5156,299.7031 L205.3438,299.625 Z " fill="#000000"/><text fill="#000000" font-family="sans-serif" font-size="12" lengthAdjust="spacingAndGlyphs" textLength="85" x="217" y="308.1074">CarDealership</text><line style="stroke:#A80036;stroke-width:1.5;" x1="189" x2="304" y1="319.9531" y2="319.9531"/><ellipse cx="199" cy="330.9531" fill="none" rx="3" ry="3" style="stroke:#038048;stroke-width:1.0;"/><text fill="#000000" font-family="sans-serif" font-size="11" lengthAdjust="spacingAndGlyphs" textLength="83" x="208" y="334.1636">address: string</text><line style="stroke:#A80036;stroke-width:1.5;" x1="189" x2="304" y1="340.7578" y2="340.7578"/><!--MD5=[63ed6a0a2dfd613875880437a5e2b06e]
class Wheel--><rect codeLine="38" fill="#FEFECE" filter="url(#fzascmb3thuj9)" height="73.6094" id="Wheel" style="stroke:#A80036;stroke-width:1.5;" width="140" x="394.5" y="157.9531"/><ellipse cx="441.25" cy="173.9531" fill="#ADD1B2" rx="11" ry="11" style="stroke:#A80036;stroke-width:1.0;"/><path d="M443.5938,169.625 C442.6563,169.1875 442.0625,169.0469 441.1875,169.0469 C438.5625,169.0469 436.5625,171.125 436.5625,173.8438 L436.5625,174.9688 C436.5625,177.5469 438.6719,179.4375 441.5625,179.4375 C442.7813,179.4375 443.9375,179.1406 444.6875,178.5938 C445.2656,178.1875 445.5938,177.7344 445.5938,177.3438 C445.5938,176.8906 445.2031,176.5 444.7344,176.5 C444.5156,176.5 444.3125,176.5781 444.125,176.7656 C443.6719,177.25 443.6719,177.25 443.4844,177.3438 C443.0625,177.6094 442.375,177.7344 441.6094,177.7344 C439.5625,177.7344 438.2656,176.6406 438.2656,174.9375 L438.2656,173.8438 C438.2656,172.0625 439.5156,170.75 441.25,170.75 C441.8281,170.75 442.4375,170.9063 442.9063,171.1563 C443.3906,171.4375 443.5625,171.6563 443.6563,172.0625 C443.7188,172.4688 443.75,172.5938 443.8906,172.7188 C444.0313,172.8594 444.2656,172.9688 444.4844,172.9688 C444.75,172.9688 445.0156,172.8281 445.1875,172.6094 C445.2969,172.4531 445.3281,172.2656 445.3281,171.8438 L445.3281,170.4219 C445.3281,169.9844 445.3125,169.8594 445.2188,169.7031 C445.0625,169.4375 444.7813,169.2969 444.4844,169.2969 C444.1875,169.2969 443.9844,169.3906 443.7656,169.7031 L443.5938,169.625 Z " fill="#000000"/><text fill="#000000" font-family="sans-serif" font-size="12" lengthAdjust="spacingAndGlyphs" textLength="38" x="461.75" y="178.1074">Wheel</text><line style="stroke:#A80036;stroke-width:1.5;" x1="395.5" x2="533.5" y1="189.9531" y2="189.9531"/><polygon fill="none" points="405.5,195.9531,409.5,199.9531,405.5,203.9531,401.5,199.9531" style="stroke:#B38D22;stroke-width:1.0;"/><text fill="#000000" font-family="sans-serif" font-size="11" lengthAdjust="spacingAndGlyphs" textLength="114" x="414.5" y="204.1636">tirePressure: double</text><rect fill="none" height="6" style="stroke:#C82930;stroke-width:1.0;" width="6" x="402.5" y="210.7578"/><text fill="#000000" font-family="sans-serif" font-size="11" lengthAdjust="spacingAndGlyphs" textLength="60" x="414.5" y="216.9683">size: int[2]</text><line style="stroke:#A80036;stroke-width:1.5;" x1="395.5" x2="533.5" y1="223.5625" y2="223.5625"/><!--MD5=[3640288bb00e105a19a150bd568b9756]
class Seat--><rect codeLine="43" fill="#FEFECE" filter="url(#fzascmb3thuj9)" height="60.8047" id="Seat" style="stroke:#A80036;stroke-width:1.5;" width="91" x="7" y="164.4531"/><ellipse cx="36.4" cy="180.4531" fill="#ADD1B2" rx="11" ry="11" style="stroke:#A80036;stroke-width:1.0;"/><path d="M38.7438,176.125 C37.8063,175.6875 37.2125,175.5469 36.3375,175.5469 C33.7125,175.5469 31.7125,177.625 31.7125,180.3438 L31.7125,181.4688 C31.7125,184.0469 33.8219,185.9375 36.7125,185.9375 C37.9313,185.9375 39.0875,185.6406 39.8375,185.0938 C40.4156,184.6875 40.7438,184.2344 40.7438,183.8438 C40.7438,183.3906 40.3531,183 39.8844,183 C39.6656,183 39.4625,183.0781 39.275,183.2656 C38.8219,183.75 38.8219,183.75 38.6344,183.8438 C38.2125,184.1094 37.525,184.2344 36.7594,184.2344 C34.7125,184.2344 33.4156,183.1406 33.4156,181.4375 L33.4156,180.3438 C33.4156,178.5625 34.6656,177.25 36.4,177.25 C36.9781,177.25 37.5875,177.4063 38.0563,177.6563 C38.5406,177.9375 38.7125,178.1563 38.8063,178.5625 C38.8688,178.9688 38.9,179.0938 39.0406,179.2188 C39.1813,179.3594 39.4156,179.4688 39.6344,179.4688 C39.9,179.4688 40.1656,179.3281 40.3375,179.1094 C40.4469,178.9531 40.4781,178.7656 40.4781,178.3438 L40.4781,176.9219 C40.4781,176.4844 40.4625,176.3594 40.3688,176.2031 C40.2125,175.9375 39.9313,175.7969 39.6344,175.7969 C39.3375,175.7969 39.1344,175.8906 38.9156,176.2031 L38.7438,176.125 Z " fill="#000000"/><text fill="#000000" font-family="sans-serif" font-size="12" lengthAdjust="spacingAndGlyphs" textLength="27" x="53.6" y="184.6074">Seat</text><line style="stroke:#A80036;stroke-width:1.5;" x1="8" x2="97" y1="196.4531" y2="196.4531"/><ellipse cx="18" cy="207.4531" fill="none" rx="3" ry="3" style="stroke:#038048;stroke-width:1.0;"/><text fill="#000000" font-family="sans-serif" font-size="11" lengthAdjust="spacingAndGlyphs" textLength="65" x="27" y="210.6636">color: string</text><line style="stroke:#A80036;stroke-width:1.5;" x1="8" x2="97" y1="217.2578" y2="217.2578"/><!--MD5=[85884a73f707af3ae230d559cad4fc2c]
link Driver to Car--><path codeLine="49" d="M246.5,102.2901 C246.5,117.6641 246.5,135.6741 246.5,151.6421 " fill="none" id="Driver-Car" style="stroke:#A80036;stroke-width:1.0;"/><text fill="#000000" font-family="sans-serif" font-size="13" lengthAdjust="spacingAndGlyphs" textLength="7" x="238.9422" y="121.5446">*</text><text fill="#000000" font-family="sans-serif" font-size="13" lengthAdjust="spacingAndGlyphs" textLength="7" x="238.9641" y="140.9071">*</text><!--MD5=[6190aadcc963d15c02367c0199cc5452]
reverse link Car to Wheel--><path codeLine="50" d="M358.015,194.9531 C370.142,194.9531 382.269,194.9531 394.396,194.9531 " fill="none" id="Car-backto-Wheel" style="stroke:#A80036;stroke-width:1.0;"/><polygon fill="#FFFFFF" points="344.855,194.9531,350.855,198.9531,356.855,194.9531,350.855,190.9531,344.855,194.9531" style="stroke:#A80036;stroke-width:1.0;"/><text fill="#000000" font-family="sans-serif" font-size="13" lengthAdjust="spacingAndGlyphs" textLength="8" x="352.3717" y="191.4589">1</text><text fill="#000000" font-family="sans-serif" font-size="13" lengthAdjust="spacingAndGlyphs" textLength="8" x="378.2909" y="191.2283">4</text><!--MD5=[d2d9bc867b0247297c51b68151af2a4b]
link Car to CarDealership--><path codeLine="51" d="M246.5,238.1071 C246.5,249.8314 246.5,262.5786 246.5,274.3564 " fill="none" id="Car-to-CarDealership" style="stroke:#A80036;stroke-width:1.0;"/><polygon fill="#FFFFFF" points="246.5,287.6178,250.5,281.6178,246.5,275.6178,242.5,281.6178,246.5,287.6178" style="stroke:#A80036;stroke-width:1.0;"/><text fill="#000000" font-family="sans-serif" font-size="13" lengthAdjust="spacingAndGlyphs" textLength="7" x="238.9203" y="258.5403">*</text><text fill="#000000" font-family="sans-serif" font-size="13" lengthAdjust="spacingAndGlyphs" textLength="8" x="237.675" y="276.8119">1</text><!--MD5=[23a50913cf8ce3a09986e3f4aa85296b]
link Seat to Car--><path codeLine="52" d="M98.3477,194.9531 C110.602,194.9531 122.856,194.9531 135.11,194.9531 " fill="none" id="Seat-to-Car" style="stroke:#A80036;stroke-width:1.0;"/><polygon fill="#A80036" points="148.407,194.9531,142.407,190.9531,136.407,194.9531,142.407,198.9531,148.407,194.9531" style="stroke:#A80036;stroke-width:1.0;"/><text fill="#000000" font-family="sans-serif" font-size="13" lengthAdjust="spacingAndGlyphs" textLength="19" x="106.131" y="190.9884">1,*</text><text fill="#000000" font-family="sans-serif" font-size="13" lengthAdjust="spacingAndGlyphs" textLength="8" x="132.5905" y="191.435">1</text><!--MD5=[d5bfade6627ade532a34d7f51f7bfa12]
@startuml
' Settings
' ============================

' use +,#,- instead of icons
'skinparam classAttributeIconSize 0

' horizontal distance in px
skinparam nodesep 50 

' vertical distance in px
skinparam ranksep 50

' use only straight lines (ortho/polyline)
'skinparam linetype ortho

' title
title Car Attributes



' Classes
' ============================
class Car{
+ passengerCount: unsigned int
- model: string
# fuelLevel: double
}

class Driver{
+ age: unsigned int
- name: string
}

class CarDealership{
+ address: string
}

class Wheel{
# tirePressure: double
- size: int[2]
}

class Seat{
+ color: string
}

' Relations
' ============================
Driver "*" -down- "*" Car
Wheel "4" -left-o "1" Car
CarDealership "1" o-up- "*" Car
Seat "1,*" -right-* "1" Car
@enduml

@startuml


skinparam nodesep 50 

skinparam ranksep 50


title Car Attributes



class Car{
+ passengerCount: unsigned int
- model: string
# fuelLevel: double
}

class Driver{
+ age: unsigned int
- name: string
}

class CarDealership{
+ address: string
}

class Wheel{
# tirePressure: double
- size: int[2]
}

class Seat{
+ color: string
}

Driver "*" -down- "*" Car
Wheel "4" -left-o "1" Car
CarDealership "1" o-up- "*" Car
Seat "1,*" -right-* "1" Car
@enduml

PlantUML version 1.2020.21beta7(Unknown compile time)
(GPL source distribution)
Java Runtime: Java(TM) SE Runtime Environment
JVM: Java HotSpot(TM) 64-Bit Server VM
Default Encoding: UTF-8
Language: en
Country: US
--></g></svg>